<?xml version="1.0" standalone="no"?>
<!DOCTYPE svg PUBLIC "-//W3C//DTD SVG 20010904//EN"
 "http://www.w3.org/TR/2001/REC-SVG-20010904/DTD/svg10.dtd">
<svg version="1.0" xmlns="http://www.w3.org/2000/svg"
 width="406.000000pt" height="323.000000pt" viewBox="0 0 406.000000 323.000000"
 preserveAspectRatio="xMidYMid meet">

<g transform="translate(0.000000,323.000000) scale(0.100000,-0.100000)"
fill="#000000" stroke="none">
<path d="M360 3219 c0 -5 5 -7 10 -4 6 3 10 1 10 -4 0 -8 131 -11 421 -11 374
0 420 2 409 15 -11 13 -71 15 -431 15 -288 0 -419 -3 -419 -11z"/>
<path d="M1580 3226 c0 -2 7 -6 15 -10 8 -3 15 -1 15 4 0 6 -7 10 -15 10 -8 0
-15 -2 -15 -4z"/>
<path d="M1626 3216 c7 -19 48 -22 42 -3 -3 6 -14 13 -26 15 -16 3 -20 -1 -16
-12z"/>
<path d="M1696 3215 c5 -13 57 -15 381 -15 333 0 374 2 363 15 -11 13 -66 15
-381 15 -323 0 -368 -2 -363 -15z"/>
<path d="M2506 3215 c4 -8 7 -15 9 -15 2 0 5 7 9 15 3 9 0 15 -9 15 -9 0 -12
-6 -9 -15z"/>
<path d="M2540 3215 c0 -8 4 -15 10 -15 5 0 7 7 4 15 -4 8 -8 15 -10 15 -2 0
-4 -7 -4 -15z"/>
<path d="M2570 3221 c0 -15 23 -26 28 -13 2 7 9 9 14 6 7 -4 8 -2 4 4 -9 14
-46 16 -46 3z"/>
<path d="M2780 3215 c0 -12 66 -15 478 -17 l477 -3 57 -27 c151 -70 248 -224
248 -390 0 -39 4 -68 10 -68 6 0 10 93 10 260 l0 260 -640 0 c-555 0 -640 -2
-640 -15z"/>
<path d="M2 2580 l2 -365 6 330 c3 182 9 336 13 342 5 8 2 22 -7 35 -15 20
-16 -10 -14 -342z"/>
<path d="M4040 2231 c0 -236 4 -372 10 -376 7 -4 10 120 10 364 0 236 -4 372
-10 376 -7 4 -10 -120 -10 -364z"/>
<path d="M4040 1101 c0 -141 4 -221 10 -221 6 0 10 78 10 214 0 133 -4 217
-10 221 -7 4 -10 -70 -10 -214z"/>
<path d="M2 514 c-2 -455 -1 -482 16 -497 17 -15 60 -17 416 -17 l397 0 -20
29 -21 29 -228 4 c-206 3 -232 6 -282 26 -112 45 -197 130 -242 242 -21 51
-23 76 -28 360 -6 299 -6 295 -8 -176z"/>
<path d="M3923 192 c-17 -21 -55 -51 -85 -69 -83 -50 -150 -63 -327 -63 l-155
0 29 -30 29 -30 323 0 323 0 0 78 -1 77 -44 35 c-25 19 -48 36 -53 37 -4 0
-21 -15 -39 -35z"/>
<path d="M1530 30 l21 -30 562 0 561 0 -29 30 -29 30 -554 0 -553 0 21 -30z"/>
</g>
</svg>
